<svg width="210" height="64" viewBox="0 0 210 64" fill="none" xmlns="http://www.w3.org/2000/svg">
<path fill-rule="evenodd" clip-rule="evenodd" d="M90.3637 0.0239439C80.8317 0.522987 73.4828 8.70482 73.9809 18.2544C74.479 27.804 82.6458 35.1664 92.1779 34.6674C93.5616 34.5934 94.9022 34.3532 96.1752 33.9773H96.1875L97.4851 36.4541C98.0078 37.4583 99.2439 37.8403 100.246 37.3166C101.249 36.7929 101.63 35.5546 101.107 34.5503L99.9511 32.3385C105.381 29.1717 108.905 23.1463 108.555 16.4369C108.056 6.88732 99.8896 -0.475099 90.3576 0.0239439H90.3637ZM98.057 28.7097L96.5811 25.8879C96.0583 24.8837 94.8222 24.5017 93.8198 25.0254C92.8174 25.5491 92.4362 26.7874 92.9589 27.7917L94.2442 30.2499H94.2257C93.4939 30.4224 92.7375 30.5333 91.9626 30.5765C84.6814 30.9584 78.4456 25.3334 78.0643 18.0388C77.683 10.7441 83.2977 4.49685 90.5789 4.11486C97.8602 3.73288 104.096 9.35789 104.477 16.6525C104.742 21.7107 102.122 26.2637 98.057 28.7097ZM15.9585 50.2856H12.0719C11.34 50.2856 10.7681 49.6879 10.7681 48.9794C10.7681 48.2709 11.34 47.6733 12.0719 47.6733H22.717C23.4242 47.6733 23.9961 48.2709 23.9961 48.9794C23.9961 49.6879 23.4242 50.2856 22.717 50.2856H18.7996V62.4413C18.7996 63.2237 18.1601 63.8398 17.3791 63.8398C16.598 63.8398 15.9585 63.2175 15.9585 62.4413V50.2856ZM27.8889 62.3057V49.0965C27.8889 48.2956 28.5039 47.6733 29.3095 47.6733H38.6263C39.315 47.6733 39.887 48.2463 39.887 48.9363C39.887 49.6263 39.315 50.1993 38.6263 50.1993H30.7055V54.3703H37.5931C38.2819 54.3703 38.8538 54.9433 38.8538 55.658C38.8538 56.3727 38.2819 56.8963 37.5931 56.8963H30.7055V61.2091H38.7431C39.4319 61.2091 40.0038 61.782 40.0038 62.4721C40.0038 63.1621 39.4319 63.7351 38.7431 63.7351H29.3095C28.51 63.7351 27.8889 63.1128 27.8889 62.3119V62.3057ZM43.5522 55.7319V55.7011C43.5522 51.1358 46.9653 47.396 51.8174 47.396C54.2896 47.396 55.9131 48.1292 57.3091 49.2074C57.6043 49.4353 57.8564 49.8235 57.8564 50.3287C57.8564 51.1111 57.2353 51.7026 56.4604 51.7026C56.073 51.7026 55.7962 51.5671 55.6117 51.4254C54.511 50.532 53.3241 49.9775 51.7866 49.9775C48.7425 49.9775 46.4979 52.4974 46.4979 55.6395V55.6826C46.4979 58.8247 48.7179 61.3692 51.7866 61.3692C53.4778 61.3692 54.6278 60.8209 55.7901 59.8351C55.993 59.6503 56.2944 59.5148 56.6387 59.5148C57.346 59.5148 57.9671 60.1124 57.9671 60.8209C57.9671 61.2583 57.7641 61.6034 57.512 61.8313C55.9992 63.1621 54.2834 63.9877 51.7005 63.9877C47.0329 63.9877 43.5522 60.3404 43.5522 55.7319ZM62.1919 48.9609C62.1919 48.1785 62.8069 47.5624 63.6125 47.5624C64.4181 47.5624 65.0085 48.1847 65.0085 48.9609V54.3518H72.6526V48.9609C72.6526 48.1785 73.2675 47.5624 74.0486 47.5624C74.8296 47.5624 75.4691 48.1847 75.4691 48.9609V62.4474C75.4691 63.2299 74.8542 63.846 74.0486 63.846C73.2429 63.846 72.6526 63.2237 72.6526 62.4474V56.9641H65.0085V62.4474C65.0085 63.2299 64.3935 63.846 63.6125 63.846C62.8315 63.846 62.1919 63.2237 62.1919 62.4474V48.9609ZM80.6226 49.0041C80.6226 48.2216 81.2376 47.5809 82.0432 47.5809H82.3383C83.0271 47.5809 83.4146 47.9259 83.802 48.4064L91.8151 58.7939V48.9301C91.8151 48.1723 92.43 47.5562 93.1864 47.5562C93.9428 47.5562 94.5824 48.1785 94.5824 48.9301V62.4166C94.5824 63.1991 93.9859 63.8152 93.211 63.8152H93.0942C92.43 63.8152 92.018 63.4701 91.6306 62.9649L83.39 52.2756V62.4597C83.39 63.2175 82.775 63.8336 82.0186 63.8336C81.2621 63.8336 80.6226 63.2114 80.6226 62.4597V49.0041ZM99.0286 55.7442V55.7011C99.0286 51.1851 102.509 47.396 107.429 47.396C112.349 47.396 115.787 51.1358 115.787 55.6518V55.6949C115.787 60.211 112.306 64 107.386 64C102.466 64 99.0286 60.2603 99.0286 55.7442ZM112.829 55.7381V55.7011C112.829 52.5836 110.559 49.9898 107.38 49.9898C104.201 49.9898 101.98 52.5343 101.98 55.6518V55.6949C101.98 58.8124 104.25 61.3816 107.429 61.3816C110.609 61.3816 112.829 58.8617 112.829 55.7381ZM120.227 48.9609C120.227 48.1785 120.842 47.5624 121.647 47.5624C122.453 47.5624 123.043 48.1847 123.043 48.9609V61.1598H130.3C131.007 61.1598 131.579 61.7327 131.579 62.4474C131.579 63.1621 131.007 63.7289 130.3 63.7289H121.647C120.848 63.7289 120.227 63.1066 120.227 62.3057V48.9609ZM133.805 55.7442V55.7011C133.805 51.1851 137.286 47.396 142.206 47.396C147.125 47.396 150.563 51.1358 150.563 55.6518V55.6949C150.563 60.211 147.082 64 142.163 64C137.243 64 133.805 60.2603 133.805 55.7442ZM147.611 55.7381V55.7011C147.611 52.5836 145.342 49.9898 142.163 49.9898C138.983 49.9898 136.763 52.5343 136.763 55.6518V55.6949C136.763 58.8124 139.032 61.3816 142.212 61.3816C145.391 61.3816 147.611 58.8617 147.611 55.7381ZM154.296 55.7442V55.7011C154.296 51.2036 157.728 47.396 162.561 47.396C164.966 47.396 166.565 47.969 168.034 49.0225C168.311 49.232 168.606 49.6202 168.606 50.1685C168.606 50.9263 167.985 51.5671 167.21 51.5671C166.841 51.5671 166.571 51.4069 166.343 51.2467C165.31 50.4889 164.191 49.9837 162.451 49.9837C159.499 49.9837 157.254 52.5775 157.254 55.6456V55.6888C157.254 58.9911 159.431 61.4247 162.703 61.4247C164.215 61.4247 165.587 60.9441 166.571 60.211V57.2044H163.41C162.721 57.2044 162.149 56.6745 162.149 55.9907C162.149 55.3068 162.721 54.7523 163.41 54.7523H167.875C168.674 54.7523 169.295 55.3746 169.295 56.1755V60.4636C169.295 61.2645 168.975 61.8375 168.311 62.2503C166.94 63.1683 165.015 63.9938 162.61 63.9938C157.598 63.9938 154.302 60.4143 154.302 55.7381L154.296 55.7442ZM174.147 48.9609C174.147 48.1785 174.762 47.5624 175.568 47.5624C176.373 47.5624 176.964 48.1847 176.964 48.9609V62.4474C176.964 63.2299 176.349 63.846 175.568 63.846C174.787 63.846 174.147 63.2237 174.147 62.4474V48.9609ZM182.277 62.3057V49.0965C182.277 48.2956 182.892 47.6733 183.698 47.6733H193.015C193.703 47.6733 194.275 48.2463 194.275 48.9363C194.275 49.6263 193.703 50.1993 193.015 50.1993H185.094V54.3703H191.981C192.67 54.3703 193.242 54.9433 193.242 55.658C193.242 56.3727 192.67 56.8963 191.981 56.8963H185.094V61.2091H193.131C193.82 61.2091 194.392 61.782 194.392 62.4721C194.392 63.1621 193.82 63.7351 193.131 63.7351H183.698C182.898 63.7351 182.277 63.1128 182.277 62.3119V62.3057ZM198.236 61.9361C197.916 61.7081 197.688 61.3138 197.688 60.8579C197.688 60.1247 198.285 59.5517 199.017 59.5517C199.404 59.5517 199.656 59.6688 199.841 59.8043C201.169 60.8579 202.59 61.4555 204.33 61.4555C206.07 61.4555 207.171 60.6299 207.171 59.4347V59.3916C207.171 58.2456 206.532 57.6233 203.555 56.9395C200.142 56.1139 198.223 55.1035 198.223 52.1462V52.1031C198.223 49.3491 200.511 47.4453 203.697 47.4453C205.714 47.4453 207.337 47.9752 208.776 48.9363C209.096 49.1211 209.397 49.5093 209.397 50.0576C209.397 50.7908 208.801 51.3637 208.069 51.3637C207.792 51.3637 207.565 51.296 207.337 51.1604C206.101 50.3595 204.908 49.9467 203.654 49.9467C202.005 49.9467 201.046 50.7969 201.046 51.8505V51.8936C201.046 53.132 201.778 53.6803 204.871 54.4134C208.26 55.239 210 56.4527 210 59.1143V59.1574C210 62.164 207.645 63.9507 204.275 63.9507C202.098 63.9507 200.038 63.2607 198.254 61.9299L198.236 61.9361ZM61.7246 32.548C61.7246 33.6754 62.6347 34.5934 63.7663 34.5934V34.5873C64.8916 34.5873 65.808 33.6754 65.808 32.5418V2.14334C65.808 1.01587 64.8916 0.0978762 63.7663 0.0978762C62.6409 0.0978762 61.7246 1.00971 61.7246 2.14334V32.548ZM160.858 34.5934C159.726 34.5934 158.816 33.6754 158.816 32.548V2.14334C158.816 1.00971 159.732 0.0978762 160.858 0.0978762C161.983 0.0978762 162.899 1.01587 162.899 2.14334V32.5418C162.899 33.6754 161.983 34.5873 160.858 34.5873V34.5934ZM131.72 34.5934H131.727H131.733C132.483 34.5934 133.178 34.1745 133.535 33.5091L149.727 3.11062C150.256 2.11253 149.881 0.868004 148.884 0.338156C147.888 -0.191692 146.646 0.18413 146.117 1.18222L131.751 28.1613L117.656 1.19454C117.133 0.196453 115.897 -0.191692 114.895 0.331995C113.899 0.855682 113.511 2.09405 114.034 3.09829L129.919 33.4968C130.269 34.1683 130.964 34.5934 131.72 34.5934ZM196.588 27.6931H186.73C185.598 27.6931 184.688 26.7751 184.688 25.6476C184.688 24.5202 185.604 23.6022 186.73 23.6022H196.588C197.719 23.6022 198.629 24.5202 198.629 25.6476C198.629 26.7751 197.713 27.6931 196.588 27.6931ZM205.837 33.4968C206.206 34.193 206.913 34.5934 207.651 34.5934C207.971 34.5934 208.297 34.5195 208.598 34.3593C209.594 33.8356 209.982 32.5973 209.459 31.593L193.574 1.19454C193.224 0.522987 192.529 0.0978762 191.772 0.0978762C191.01 0.0732321 190.315 0.510665 189.958 1.18222L173.766 31.5807C173.237 32.5788 173.612 33.8233 174.608 34.3532C175.605 34.883 176.847 34.5072 177.376 33.5091L191.742 6.52998L205.837 33.4968ZM36.5969 28.8883H11.5799C10.6205 28.8883 9.83952 29.6708 9.83952 30.6319C9.83952 31.593 10.6205 32.3755 11.5799 32.3755H36.603C37.5624 32.3755 38.3434 31.593 38.3434 30.6319C38.3434 29.6708 37.5624 28.8883 36.603 28.8883H36.5969ZM40.8648 30.6319C40.8648 31.593 41.6458 32.3755 42.6051 32.3755H49.8679C50.8273 32.3755 51.6083 31.593 51.6083 30.6319C51.6083 29.6708 50.8273 28.8883 49.8679 28.8883H42.6051C41.6458 28.8883 40.8648 29.6708 40.8648 30.6319ZM46.0059 25.7277C45.0466 25.7277 44.2656 24.9453 44.2656 23.9842C44.2656 23.023 45.0466 22.2406 46.0059 22.2406H49.8679C50.8273 22.2406 51.6083 23.023 51.6083 23.9842C51.6083 24.9453 50.8273 25.7277 49.8679 25.7277H46.0059ZM45.2372 17.3426C45.2372 18.3037 46.0182 19.0861 46.9776 19.0861H49.8618C50.8211 19.0861 51.6021 18.3037 51.6021 17.3426C51.6021 16.3815 50.8211 15.599 49.8618 15.599H46.9776C46.0182 15.599 45.2372 16.3815 45.2372 17.3426ZM46.0613 12.4384C45.1019 12.4384 44.3209 11.656 44.3209 10.6948C44.3209 9.73372 45.1019 8.95126 46.0613 8.95126H49.8679C50.8273 8.95126 51.6083 9.73372 51.6083 10.6948C51.6083 11.656 50.8273 12.4384 49.8679 12.4384H46.0613ZM41.0185 4.04709C41.0185 5.00821 41.7995 5.79066 42.7589 5.79066H49.8679C50.8273 5.79066 51.6083 5.00821 51.6083 4.04709C51.6083 3.08597 50.8273 2.30352 49.8679 2.30352H42.7589C41.7995 2.30352 41.0185 3.08597 41.0185 4.04709ZM39.9977 22.2406H6.67858C5.71922 22.2406 4.93821 23.023 4.93821 23.9842C4.93821 24.9453 5.71922 25.7277 6.67858 25.7277H39.9977C40.957 25.7277 41.738 24.9453 41.738 23.9842C41.738 23.023 40.957 22.2406 39.9977 22.2406ZM1.74037 15.599H40.9755C41.9348 15.599 42.7158 16.3815 42.7158 17.3426C42.7158 18.3037 41.9348 19.0861 40.9755 19.0861H1.74037C0.781012 19.0861 0 18.3037 0 17.3426C0 16.3815 0.781012 15.599 1.74037 15.599ZM40.0592 8.95126H4.21255C3.25319 8.95126 2.47218 9.73372 2.47218 10.6948C2.47218 11.656 3.25319 12.4384 4.21255 12.4384H40.0592C41.0185 12.4384 41.7995 11.656 41.7995 10.6948C41.7995 9.73372 41.0185 8.95126 40.0592 8.95126ZM16.8133 2.30352H36.7506C37.71 2.30352 38.491 3.08597 38.491 4.04709C38.491 5.00821 37.71 5.79066 36.7506 5.79066H16.8133C15.8539 5.79066 15.0729 5.00821 15.0729 4.04709C15.0729 3.08597 15.8539 2.30352 16.8133 2.30352Z" fill="#005687"/>
</svg>
